<?xml version="1.0" encoding="UTF-8" standalone="no"?>
<!-- Created with Inkscape (http://www.inkscape.org/) -->

<svg
   width="124.7688mm"
   height="124.74323mm"
   viewBox="0 0 124.7688 124.74323"
   version="1.1"
   id="svg1"
   xml:space="preserve"
   xmlns="http://www.w3.org/2000/svg"
   xmlns:svg="http://www.w3.org/2000/svg"><defs
     id="defs1" /><g
     id="layer1"
     transform="translate(-114.43838,-155.61331)"><path
       style="fill:#ff695a;fill-opacity:1"
       d="m 114.52143,264.81226 0.0831,-15.54427 0.70489,-2.24896 c 1.53525,-4.89824 3.65692,-8.43309 6.99946,-11.6616 5.44528,-5.25952 11.49032,-7.65299 19.32869,-7.65299 h 3.02908 l -0.14208,0.72761 c -0.0781,0.40018 -0.9377,7.44286 -1.91012,15.65039 -1.2135,10.24226 -1.6942,15.1268 -1.53259,15.57322 0.29223,0.80726 7.97955,5.35503 9.05188,5.35503 0.90242,0 8.65206,-4.42899 9.0497,-5.17199 0.23537,-0.43979 -0.10103,-3.90264 -1.57349,-16.19743 -1.03006,-8.60093 -1.87285,-15.70528 -1.87285,-15.78744 0,-0.0822 1.35362,-0.14939 3.00805,-0.14939 7.68374,0 13.92742,2.46558 19.09549,7.54063 3.36176,3.30127 5.26467,6.25066 6.6387,10.28962 1.34974,3.96754 1.42026,4.98196 1.42026,20.43127 v 14.39057 h -5.95312 -5.95313 v -12.8323 c 0,-12.47951 -0.0146,-12.84683 -0.52917,-13.36145 -0.76134,-0.76135 -1.95571,-0.68497 -2.62663,0.16797 -0.53742,0.68322 -0.54837,0.94994 -0.54837,13.36146 v 12.66432 h -20.101 -20.10099 l -0.0735,-12.85582 -0.0735,-12.85582 -0.62463,-0.50564 c -0.75718,-0.61295 -1.57174,-0.64533 -2.35921,-0.0938 l -0.58804,0.41188 v 12.94958 12.94958 h -5.96496 -5.96497 z m 32.74896,-5.33379 c -1.44881,-0.87454 -2.49477,-1.6773 -2.46924,-1.89511 0.0244,-0.20783 0.79161,-6.69883 1.70499,-14.42445 l 1.66068,-14.04658 0.99256,-0.57124 0.99256,-0.57125 0.94226,0.55595 c 0.51824,0.30577 0.99854,0.8116 1.06732,1.12407 0.1713,0.77813 3.31095,27.22779 3.31095,27.89274 0,0.39724 -0.66118,0.91058 -2.59681,2.01614 -1.42825,0.81576 -2.70817,1.4728 -2.84427,1.46008 -0.1361,-0.0127 -1.37855,-0.70588 -2.761,-1.54035 z m 42.49509,-6.80057 c -0.5912,-7.65894 -3.05345,-13.50014 -8.0673,-19.13802 -0.98029,-1.10229 -1.51871,-1.87885 -1.22258,-1.76333 3.1825,1.24157 9.19164,1.80654 13.11423,1.23299 11.21115,-1.63929 20.22599,-9.74719 23.19456,-20.86106 0.6067,-2.27141 0.68592,-3.07219 0.68592,-6.93362 0,-3.86143 -0.0792,-4.66221 -0.68592,-6.93362 -2.65627,-9.94467 -10.26003,-17.57044 -20.17542,-20.23381 -2.36614,-0.63557 -3.09193,-0.70839 -7.00525,-0.70284 -3.84954,0.005 -4.6784,0.0882 -7.01146,0.69996 -6.32724,1.65905 -11.98322,5.59733 -16.17731,11.26433 -0.26223,0.35432 -0.43901,0.28498 -1.33326,-0.52291 -2.4785,-2.23918 -6.00034,-4.1153 -9.34463,-4.978 -2.11152,-0.54468 -2.19002,-0.65872 -1.30706,-1.89871 0.28232,-0.39648 0.51331,-0.78594 0.51331,-0.86546 0,-0.0795 -1.1954,-1.35173 -2.65644,-2.82715 l -2.65645,-2.68257 1.45284,-1.7758 c 1.55727,-1.90344 5.94746,-6.241 7.71607,-7.62357 l 1.0779,-0.84261 2.6213,2.63117 c 1.44172,1.44715 2.69137,2.63118 2.77699,2.63118 0.0856,0 1.39755,-0.74575 2.91538,-1.65722 3.26528,-1.96082 7.51719,-3.7099 11.28503,-4.64224 l 2.71946,-0.67293 v -3.77363 -3.77364 l 1.25677,-0.21465 c 1.60824,-0.27468 10.99649,-0.27621 12.30312,-0.002 l 0.99219,0.20821 v 3.79005 3.79004 l 1.65365,0.32395 c 3.968,0.77733 10.09949,3.30377 13.86697,5.71379 0.78264,0.50065 1.51221,0.91028 1.62125,0.91028 0.10905,0 1.37649,-1.18266 2.81654,-2.62814 l 2.61827,-2.62813 1.87468,1.55654 c 2.08387,1.73024 5.24293,4.90862 7.11161,7.15511 l 1.22361,1.471 -2.63495,2.62507 c -1.44923,1.44379 -2.63496,2.7143 -2.63496,2.82334 0,0.10905 0.40515,0.83162 0.90033,1.60571 2.33755,3.65417 4.37318,8.45248 5.44052,12.82418 l 0.59753,2.4474 h 3.79064 3.79064 l 0.21464,1.25677 c 0.27833,1.62961 0.27833,10.67351 0,12.30312 l -0.21464,1.25677 h -3.7716 -3.7716 l -0.7125,2.81369 c -0.98217,3.87865 -2.58592,7.77486 -4.58026,11.12748 -0.92604,1.55672 -1.6837,2.8988 -1.6837,2.9824 0,0.0836 1.18403,1.33157 2.63117,2.77329 l 2.63118,2.6213 -0.84524,1.0779 c -1.42839,1.82158 -4.96909,5.43205 -7.19284,7.33459 l -2.11427,1.80888 -2.65275,-2.64372 c -1.45901,-1.45405 -2.74832,-2.64372 -2.86514,-2.64372 -0.11682,0 -0.7101,0.33995 -1.3184,0.75546 -3.27677,2.2382 -8.27431,4.40245 -12.82804,5.55535 l -2.83005,0.71651 -0.0732,3.7368 c -0.0581,2.96428 -0.15225,3.76711 -0.45535,3.88342 -0.21015,0.0806 -1.73706,0.22764 -3.39313,0.32664 l -3.01103,0.18002 z m -42.09821,-28.84873 c -3.30178,-0.53127 -6.85238,-2.10456 -9.30904,-4.12491 -6.52287,-5.36435 -8.56409,-14.70061 -4.86693,-22.26065 1.97181,-4.03201 4.62166,-6.68186 8.65368,-8.65368 10.3684,-5.07055 22.81918,0.65639 25.93015,11.92702 0.7226,2.61787 0.66014,7.21871 -0.1329,9.78958 -1.03772,3.36409 -2.29635,5.45203 -4.78933,7.94501 -2.46645,2.46644 -4.58066,3.7498 -7.81272,4.74241 -1.83303,0.56296 -5.98551,0.90672 -7.67291,0.63522 z m 36.77708,-8.59976 c -1.14829,-0.62519 -8.07524,-7.77414 -8.35547,-8.62325 -0.40616,-1.23069 -0.0825,-2.30389 0.97493,-3.23229 1.82818,-1.60516 3.24446,-1.06569 6.84698,2.60806 l 1.8477,1.88423 7.6773,-7.63981 c 4.22252,-4.20189 7.97169,-7.83453 8.33149,-8.07252 1.41686,-0.9372 3.61356,-0.27575 4.36862,1.31544 0.4756,1.00223 0.50848,1.77862 0.10881,2.56872 -0.41611,0.82259 -18.21398,18.65856 -19.07524,19.11608 -0.84193,0.44725 -1.98405,0.47882 -2.72512,0.0753 z"
       id="path2" /></g></svg>
